<mxfile host="65bd71144e">
    <diagram id="6wna8VnOX50EwXiXLt-8" name="Page-1">
        <mxGraphModel dx="1545" dy="1147" grid="1" gridSize="10" guides="1" tooltips="1" connect="1" arrows="1" fold="1" page="1" pageScale="1" pageWidth="850" pageHeight="1100" math="0" shadow="0">
            <root>
                <mxCell id="0"/>
                <mxCell id="1" parent="0"/>
                <mxCell id="2" value="&lt;div style=&quot;&quot;&gt;&lt;span style=&quot;background-color: initial;&quot;&gt;RequestDetailView&lt;/span&gt;&lt;/div&gt;" style="rounded=0;whiteSpace=wrap;html=1;align=left;verticalAlign=top;" vertex="1" parent="1">
                    <mxGeometry x="80" y="190" width="600" height="420" as="geometry"/>
                </mxCell>
                <mxCell id="3" value="RequestInformation" style="rounded=0;whiteSpace=wrap;html=1;verticalAlign=top;" vertex="1" parent="1">
                    <mxGeometry x="110" y="240" width="270" height="280" as="geometry"/>
                </mxCell>
                <mxCell id="4" value="RequestTabs" style="rounded=0;whiteSpace=wrap;html=1;" vertex="1" parent="1">
                    <mxGeometry x="390" y="240" width="260" height="350" as="geometry"/>
                </mxCell>
                <mxCell id="6" value="RequestDocuments" style="rounded=0;whiteSpace=wrap;html=1;" vertex="1" parent="1">
                    <mxGeometry x="230" y="320" width="140" height="60" as="geometry"/>
                </mxCell>
                <mxCell id="7" value="RequestCoversheets" style="rounded=0;whiteSpace=wrap;html=1;" vertex="1" parent="1">
                    <mxGeometry x="120" y="450" width="250" height="50" as="geometry"/>
                </mxCell>
                <mxCell id="8" value="ResponseDocs" style="whiteSpace=wrap;html=1;aspect=fixed;" vertex="1" parent="1">
                    <mxGeometry x="80" y="640" width="280" height="280" as="geometry"/>
                </mxCell>
                <mxCell id="9" value="Comments" style="rounded=0;whiteSpace=wrap;html=1;" vertex="1" parent="1">
                    <mxGeometry x="120" y="320" width="100" height="60" as="geometry"/>
                </mxCell>
            </root>
        </mxGraphModel>
    </diagram>
</mxfile>